inDegrees=no
num_controls=7
num_derivatives=13
num_iterations=87
num_multipliers=7
num_parameters=0
num_slacks=7
num_states=26
objective=0.334220
objective_accelerations=0.036589
objective_balance=0.001207
objective_effort=0.027360
objective_height=0.267401
objective_ligament=0.001663
solver_duration=925.847191
status=Solve_Succeeded
success=true
DataType=double
version=3
OpenSimVersion=4.5
endheader
time	/jointset/ground_pelvis/pelvis_tilt/value	/jointset/ground_pelvis/pelvis_tx/value	/jointset/ground_pelvis/pelvis_ty/value	/jointset/hip_r/hip_flexion_r/value	/jointset/hip_r/hip_adduction_r/value	/jointset/hip_r/hip_rotation_r/value	/jointset/back/lumbar_extension/value	/jointset/patellofemoral_r/patellar_flexion_r/value	/jointset/knee_r/knee_flexion_r/value	/jointset/knee_r/knee_adduction_r/value	/jointset/knee_r/knee_rotation_r/value	/jointset/ankle_r/ankle_angle_r/value	/jointset/subtalar_r/subtalar_angle_r/value	/jointset/ground_pelvis/pelvis_tilt/speed	/jointset/ground_pelvis/pelvis_tx/speed	/jointset/ground_pelvis/pelvis_ty/speed	/jointset/hip_r/hip_flexion_r/speed	/jointset/hip_r/hip_adduction_r/speed	/jointset/hip_r/hip_rotation_r/speed	/jointset/back/lumbar_extension/speed	/jointset/patellofemoral_r/patellar_flexion_r/speed	/jointset/knee_r/knee_flexion_r/speed	/jointset/knee_r/knee_adduction_r/speed	/jointset/knee_r/knee_rotation_r/speed	/jointset/ankle_r/ankle_angle_r/speed	/jointset/subtalar_r/subtalar_angle_r/speed	/forceset/tau_hip_flexion_r	/forceset/tau_hip_adduction_r	/forceset/tau_hip_rotation_r	/forceset/tau_knee_flexion_r	/forceset/tau_ankle_angle_r	/forceset/tau_subtalar_angle_r	/forceset/tau_lumbar_extension	lambda_cid13_p0	lambda_cid14_p0	lambda_cid14_p1	lambda_cid14_p2	lambda_cid14_p3	lambda_cid14_p4	lambda_cid14_p5	/jointset/ground_pelvis/pelvis_tilt/accel	/jointset/ground_pelvis/pelvis_tx/accel	/jointset/ground_pelvis/pelvis_ty/accel	/jointset/hip_r/hip_flexion_r/accel	/jointset/hip_r/hip_adduction_r/accel	/jointset/hip_r/hip_rotation_r/accel	/jointset/back/lumbar_extension/accel	/jointset/patellofemoral_r/patellar_flexion_r/accel	/jointset/knee_r/knee_flexion_r/accel	/jointset/knee_r/knee_adduction_r/accel	/jointset/knee_r/knee_rotation_r/accel	/jointset/ankle_r/ankle_angle_r/accel	/jointset/subtalar_r/subtalar_angle_r/accel	gamma_cid13_p0	gamma_cid14_p0	gamma_cid14_p1	gamma_cid14_p2	gamma_cid14_p3	gamma_cid14_p4	gamma_cid14_p5
1	-0.2824972712778474	-0.006055021448970382	0.6346940122084714	1.463482648607948	-0.2461098025669061	0.01806204110652522	-0.7853916148228574	1.509191965814676	1.509191965814677	-0.05438369010724669	0.1744481961301023	0.4362416380908946	0.1584535230581805	0.07201509275535253	0.005725731764713617	0.01571994795441234	-0.1032030466659892	-0.0001565605773061312	-0.02232907655581597	0.000142231782536835	-0.01864941276834399	-0.01864941276834325	-0.0176723755225239	-0.0005595782283116295	0.01404082851609989	0.007081980939099462	-0.3655400301652018	0.0396523115868644	0.02389341654786065	-0.4327023442285337	-0.05311615270544104	-0.009119784816872464	0.375003946002671	-0.04069874440095345	-69.62151494627965	-19.43096697105208	7.266334648347282	8.683133573982515	-771.8368659464204	55.03944022227004	1.594285687134721	0.1789943779932129	1.848262134926319	-5.794394853397396	0.03429233711132374	-1.015291612115822	-0.09205579400601098	-4.993676021934712	-4.993676021934707	0.5256260642234182	0.01044185723436413	-1.025658991631785	-0.4079838773905328	1.179282691743949e-09	-9.281294503402798e-10	7.715080023848764e-10	6.310612757568289e-09	3.171153590128339e-09	-7.936493129557828e-09	-3.377443127491154e-09
1.01	-0.2816990765944033	-0.005988754175890256	0.6349433896672987	1.462162767014832	-0.2461094581384687	0.01778857527621566	-0.7853919119248718	1.508755969097527	1.508755969097508	-0.05453386950773548	0.1744426350382689	0.4363307628883448	0.1585042884580573	0.08753154045747229	0.007538158547843433	0.03414583111763429	-0.1606858885069965	0.0002293302736125609	-0.0323709462806353	1.643678215809845e-06	-0.06855633904624481	-0.06855633904624511	-0.01237356614240891	-0.0005545003604566582	0.003784247191352004	0.003078315716989886	-0.3659608520513975	0.03974138078650385	0.02388772528463773	-0.4327619611655198	-0.05325210245952414	-0.009095457834106827	0.3757522528164893	-0.04070539777896232	-69.68935095497218	-19.4347209424235	7.269722047866927	8.540105277178469	-772.328345952008	55.04427593369765	1.516479245875333	0.1839321564002505	1.838292766243851	-5.712121043936267	0.04132293362875285	-0.9996628325753654	0.05543405524306404	-4.990162728078723	-4.990162728078946	0.5304997341044324	-0.004733860890237157	-1.025640681749202	-0.3954709892730027	2.682577586483135e-09	1.046192228795182e-09	1.448997324525842e-08	1.705628079530064e-08	-9.908862184772666e-11	-8.676327580702835e-09	2.174244047493629e-08
1.02	-0.2807484864471096	-0.005904049569393508	0.6353767342296028	1.460270678564381	-0.2461051377066117	0.01741448511266861	-0.7853875160328775	1.507820710758127	1.507820710758109	-0.05463136254256928	0.1744370698026284	0.4363173252767427	0.1585152345767832	0.1024941855245748	0.009413198448037913	0.05251336864983096	-0.2176444181273691	0.0006386401063909231	-0.04245394320186802	0.001080830529419651	-0.1185017372185801	-0.1185017372185815	-0.007135102394343562	-0.0005604069906506244	-0.006471653287509246	-0.000881875291193268	-0.366381673937744	0.03983044998613607	0.02388203402132786	-0.4328215781025126	-0.0533880522135816	-0.00907113085134038	0.3765005596301668	-0.04071734942550415	-69.76463483965966	-19.43680090030745	7.269440807467357	8.398099745629759	-772.9536403577198	55.05660446528702	1.483525160131306	0.1915170014061006	1.836593008721262	-5.689532409270409	0.03897613348326516	-1.02351705139849	0.1518991970984193	-5.001370400821645	-5.001370400821656	0.5135569378135038	0.008244957624581618	-1.025522822454556	-0.3992890346052833	2.79981076002663e-09	1.488982032869046e-09	2.253285703715539e-08	1.874610582938266e-08	-1.724889967896547e-09	-1.134442267033802e-08	2.993116513321483e-08
1.03	-0.2796509376303121	-0.005800283679023568	0.6359933970645246	1.457811690886196	-0.2460965829427594	0.01693971902701723	-0.7853661493354631	1.506385909102709	1.506385909102697	-0.0546764744523271	0.1744313117612489	0.436201253210845	0.1584868049644737	0.1169288399351202	0.01135008290807402	0.0708024342014794	-0.2740542024646833	0.001078825932818798	-0.05246982798127602	0.003409201039286722	-0.1684548381111091	-0.1684548381111104	-0.001867431163005045	-0.0006014815676763692	-0.01675121145879276	-0.004795921134254427	-0.3667855087452266	0.03996266355024763	0.0238619289386871	-0.4323251462649806	-0.05393996435170129	-0.008986382280565246	0.3772488679177782	-0.0407390111974804	-69.94946197804782	-19.41543454310201	7.246705543134944	8.382145833392222	-773.2786643395142	55.04076134408368	1.410425388065494	0.1962889843262699	1.822545885724349	-5.601863934457495	0.04752029806121567	-0.9862082295063629	0.3058097903699443	-4.991717151486969	-4.991717151486954	0.536351707279051	-0.01181966352958851	-1.030440893207365	-0.3862361912105463	2.90290044661914e-09	1.916143960666761e-09	3.051782673261378e-08	2.034352430220289e-08	-3.333911305109366e-09	-1.40321938889374e-08	3.794712286349175e-08
1.04	-0.2784116443080983	-0.00567684598084853	0.6367924470664303	1.454791572866936	-0.2460834302224718	0.01636567728590761	-0.7853149981704506	1.504451688994761	1.504451688994759	-0.05466831375146079	0.1744248357744702	0.4359821318474738	0.1584194801273235	0.1308430866076426	0.0133475600090578	0.08899080204665916	-0.3298704863418223	0.001558231392787149	-0.06230907429245885	0.007037724046721047	-0.218385427724374	-0.2183854277243752	0.003519419727729337	-0.0007039960712374814	-0.02708151277975734	-0.008660920259475704	-0.367189343552731	0.04009487711436641	0.02384182385597762	-0.4318287144274535	-0.05449187648981452	-0.008901633709771659	0.3779971762053685	-0.0407663163164249	-70.14187729636535	-19.39238747808594	7.220264835670097	8.367062938096568	-773.739444561314	55.03301633535477	1.379443612526632	0.2036355295957197	1.816453467427533	-5.570832317235399	0.04682006019133226	-0.988189357753461	0.4119296966117769	-4.996868144968815	-4.996868144968822	0.5373928696926946	-0.004043027682457721	-1.035671452390608	-0.3894796910372859	3.969064392704368e-09	3.425961213269436e-09	4.759827136671855e-08	3.109493615884954e-08	-6.438125084941479e-09	-1.6356284763396e-08	6.169909005549856e-08
1.05	-0.2770358221253991	-0.005533104966965974	0.6377727856778956	1.451216446964792	-0.2460653357286087	0.01569389810696039	-0.7852209359584394	1.502018402754004	1.502018402754005	-0.05460589272141734	0.1744172049244222	0.4356594193055368	0.1583136581975662	0.1442281263206723	0.01541315502134268	0.1070503981472018	-0.3850311929018783	0.002063087955475436	-0.07204100716898233	0.01201018376238644	-0.2682555417327487	-0.2682555417327459	0.008962452166542467	-0.0008160577087453658	-0.03747338996356776	-0.01250338063095265	-0.3673545794068639	0.04020354820838825	0.02381150540181306	-0.4309681307905974	-0.05503924413806904	-0.008791326301373449	0.3785862293972636	-0.0408009541073717	-70.30252507458745	-19.34369610130033	7.179476379741216	8.330777952265102	-773.8061549742245	55.00870360365324	1.304051535228375	0.2098963757007961	1.796730609346662	-5.470163976068143	0.0526883660953956	-0.9648334071874713	0.5752239198538411	-4.979642248682236	-4.979642248681636	0.5474124328434481	-0.01385732718224632	-1.042806769296554	-0.381601044232701	5.065324409398739e-09	4.96961144477226e-09	6.496294959265597e-08	4.213241030874071e-08	-9.589063628605439e-09	-1.86690106271002e-08	8.594280754318437e-08
